<?xml version="1.0" encoding="UTF-8"?>
<svg width="123px" height="50px" viewBox="0 0 123 50" version="1.1" xmlns="http://www.w3.org/2000/svg" xmlns:xlink="http://www.w3.org/1999/xlink">
    <title>Artboard</title>
    <g id="Artboard" stroke="none" stroke-width="1" fill="none" fill-rule="evenodd">
        <g id="Garden-Centre-Copy" transform="translate(1.008000, 32.392000)" fill="#000000" fill-rule="nonzero">
            <path d="M10.35,3.15 C9.906,2.682 9.378,2.319 8.766,2.061 C8.154,1.803 7.452,1.674 6.66,1.674 C5.844,1.674 5.109,1.824 4.455,2.124 C3.801,2.424 3.246,2.829 2.79,3.339 C2.334,3.849 1.983,4.44 1.737,5.112 C1.491,5.784 1.368,6.492 1.368,7.236 C1.368,7.98 1.491,8.688 1.737,9.36 C1.983,10.032 2.334,10.62 2.79,11.124 C3.246,11.628 3.801,12.03 4.455,12.33 C5.109,12.63 5.844,12.78 6.66,12.78 C7.38,12.78 8.04,12.702 8.64,12.546 C9.24,12.39 9.726,12.192 10.098,11.952 L10.098,8.082 L7.128,8.082 L7.128,6.948 L11.394,6.948 L11.394,12.69 C10.698,13.11 9.948,13.422 9.144,13.626 C8.34,13.83 7.506,13.932 6.642,13.932 C5.682,13.932 4.794,13.764 3.978,13.428 C3.162,13.092 2.46,12.627 1.872,12.033 C1.284,11.439 0.825,10.734 0.495,9.918 C0.165,9.102 -1.42108547e-14,8.208 -1.42108547e-14,7.236 C-1.42108547e-14,6.264 0.168,5.37 0.504,4.554 C0.84,3.738 1.305,3.033 1.899,2.439 C2.493,1.845 3.195,1.38 4.005,1.044 C4.815,0.708 5.694,0.54 6.642,0.54 C7.662,0.54 8.55,0.69 9.306,0.99 C10.062,1.29 10.71,1.71 11.25,2.25 L10.35,3.15 Z" id="Path"></path>
            <path d="M19.944,8.172 C19.944,7.44 19.752,6.894 19.368,6.534 C18.984,6.174 18.426,5.994 17.694,5.994 C17.19,5.994 16.722,6.084 16.29,6.264 C15.858,6.444 15.492,6.684 15.192,6.984 L14.508,6.174 C14.856,5.826 15.315,5.538 15.885,5.31 C16.455,5.082 17.1,4.968 17.82,4.968 C18.276,4.968 18.702,5.031 19.098,5.157 C19.494,5.283 19.842,5.472 20.142,5.724 C20.442,5.976 20.676,6.294 20.844,6.678 C21.012,7.062 21.096,7.512 21.096,8.028 L21.096,11.718 C21.096,12.042 21.108,12.378 21.132,12.726 C21.156,13.074 21.192,13.368 21.24,13.608 L20.142,13.608 C20.106,13.404 20.076,13.182 20.052,12.942 C20.028,12.702 20.016,12.468 20.016,12.24 L19.98,12.24 C19.596,12.804 19.161,13.209 18.675,13.455 C18.189,13.701 17.604,13.824 16.92,13.824 C16.596,13.824 16.263,13.779 15.921,13.689 C15.579,13.599 15.267,13.452 14.985,13.248 C14.703,13.044 14.469,12.78 14.283,12.456 C14.097,12.132 14.004,11.736 14.004,11.268 C14.004,10.62 14.169,10.107 14.499,9.729 C14.829,9.351 15.27,9.069 15.822,8.883 C16.374,8.697 17.007,8.577 17.721,8.523 C18.435,8.469 19.176,8.442 19.944,8.442 L19.944,8.172 Z M19.584,9.396 C19.08,9.396 18.573,9.417 18.063,9.459 C17.553,9.501 17.091,9.585 16.677,9.711 C16.263,9.837 15.924,10.02 15.66,10.26 C15.396,10.5 15.264,10.818 15.264,11.214 C15.264,11.514 15.321,11.766 15.435,11.97 C15.549,12.174 15.702,12.339 15.894,12.465 C16.086,12.591 16.299,12.681 16.533,12.735 C16.767,12.789 17.004,12.816 17.244,12.816 C17.676,12.816 18.06,12.741 18.396,12.591 C18.732,12.441 19.014,12.237 19.242,11.979 C19.47,11.721 19.644,11.424 19.764,11.088 C19.884,10.752 19.944,10.398 19.944,10.026 L19.944,9.396 L19.584,9.396 Z" id="Shape"></path>
            <path d="M24.246,7.038 C24.246,6.81 24.24,6.516 24.228,6.156 C24.216,5.796 24.198,5.472 24.174,5.184 L25.344,5.184 C25.368,5.412 25.386,5.664 25.398,5.94 C25.41,6.216 25.416,6.444 25.416,6.624 L25.452,6.624 C25.692,6.132 26.052,5.733 26.532,5.427 C27.012,5.121 27.552,4.968 28.152,4.968 C28.308,4.968 28.449,4.974 28.575,4.986 C28.701,4.998 28.83,5.022 28.962,5.058 L28.8,6.21 C28.728,6.186 28.608,6.162 28.44,6.138 C28.272,6.114 28.104,6.102 27.936,6.102 C27.612,6.102 27.3,6.162 27,6.282 C26.7,6.402 26.439,6.591 26.217,6.849 C25.995,7.107 25.815,7.437 25.677,7.839 C25.539,8.241 25.47,8.724 25.47,9.288 L25.47,13.608 L24.246,13.608 L24.246,7.038 Z" id="Path"></path>
            <path d="M37.332,12.186 C36.972,12.726 36.504,13.134 35.928,13.41 C35.352,13.686 34.758,13.824 34.146,13.824 C33.486,13.824 32.889,13.71 32.355,13.482 C31.821,13.254 31.365,12.942 30.987,12.546 C30.609,12.15 30.315,11.682 30.105,11.142 C29.895,10.602 29.79,10.02 29.79,9.396 C29.79,8.772 29.895,8.19 30.105,7.65 C30.315,7.11 30.609,6.642 30.987,6.246 C31.365,5.85 31.821,5.538 32.355,5.31 C32.889,5.082 33.486,4.968 34.146,4.968 C34.758,4.968 35.352,5.109 35.928,5.391 C36.504,5.673 36.972,6.09 37.332,6.642 L37.368,6.642 L37.368,-1.42108547e-14 L38.592,-1.42108547e-14 L38.592,13.608 L37.368,13.608 L37.368,12.186 L37.332,12.186 Z M31.086,9.396 C31.086,9.864 31.158,10.305 31.302,10.719 C31.446,11.133 31.653,11.493 31.923,11.799 C32.193,12.105 32.526,12.345 32.922,12.519 C33.318,12.693 33.768,12.78 34.272,12.78 C34.74,12.78 35.172,12.693 35.568,12.519 C35.964,12.345 36.306,12.108 36.594,11.808 C36.882,11.508 37.107,11.151 37.269,10.737 C37.431,10.323 37.512,9.876 37.512,9.396 C37.512,8.916 37.431,8.469 37.269,8.055 C37.107,7.641 36.882,7.281 36.594,6.975 C36.306,6.669 35.964,6.429 35.568,6.255 C35.172,6.081 34.74,5.994 34.272,5.994 C33.768,5.994 33.318,6.084 32.922,6.264 C32.526,6.444 32.193,6.687 31.923,6.993 C31.653,7.299 31.446,7.659 31.302,8.073 C31.158,8.487 31.086,8.928 31.086,9.396 Z" id="Shape"></path>
            <path d="M48.294,8.748 C48.258,7.956 48.003,7.299 47.529,6.777 C47.055,6.255 46.38,5.994 45.504,5.994 C45.096,5.994 44.718,6.069 44.37,6.219 C44.022,6.369 43.716,6.573 43.452,6.831 C43.188,7.089 42.978,7.383 42.822,7.713 C42.666,8.043 42.576,8.388 42.552,8.748 L48.294,8.748 Z M49.536,9.144 C49.536,9.228 49.536,9.318 49.536,9.414 C49.536,9.51 49.53,9.612 49.518,9.72 L42.534,9.72 C42.546,10.14 42.63,10.536 42.786,10.908 C42.942,11.28 43.158,11.604 43.434,11.88 C43.71,12.156 44.034,12.375 44.406,12.537 C44.778,12.699 45.18,12.78 45.612,12.78 C46.248,12.78 46.797,12.633 47.259,12.339 C47.721,12.045 48.072,11.706 48.312,11.322 L49.23,12.042 C48.726,12.678 48.171,13.134 47.565,13.41 C46.959,13.686 46.308,13.824 45.612,13.824 C44.988,13.824 44.409,13.713 43.875,13.491 C43.341,13.269 42.882,12.96 42.498,12.564 C42.114,12.168 41.811,11.7 41.589,11.16 C41.367,10.62 41.256,10.032 41.256,9.396 C41.256,8.76 41.364,8.172 41.58,7.632 C41.796,7.092 42.096,6.624 42.48,6.228 C42.864,5.832 43.314,5.523 43.83,5.301 C44.346,5.079 44.904,4.968 45.504,4.968 C46.164,4.968 46.746,5.079 47.25,5.301 C47.754,5.523 48.174,5.823 48.51,6.201 C48.846,6.579 49.101,7.02 49.275,7.524 C49.449,8.028 49.536,8.568 49.536,9.144 Z" id="Shape"></path>
            <path d="M53.262,5.184 C53.286,5.412 53.304,5.664 53.316,5.94 C53.328,6.216 53.334,6.444 53.334,6.624 L53.37,6.624 C53.61,6.132 54,5.733 54.54,5.427 C55.08,5.121 55.65,4.968 56.25,4.968 C57.318,4.968 58.119,5.286 58.653,5.922 C59.187,6.558 59.454,7.398 59.454,8.442 L59.454,13.608 L58.23,13.608 L58.23,8.946 C58.23,8.502 58.194,8.1 58.122,7.74 C58.05,7.38 57.927,7.071 57.753,6.813 C57.579,6.555 57.345,6.354 57.051,6.21 C56.757,6.066 56.388,5.994 55.944,5.994 C55.62,5.994 55.305,6.06 54.999,6.192 C54.693,6.324 54.42,6.525 54.18,6.795 C53.94,7.065 53.748,7.407 53.604,7.821 C53.46,8.235 53.388,8.724 53.388,9.288 L53.388,13.608 L52.164,13.608 L52.164,7.038 C52.164,6.81 52.158,6.516 52.146,6.156 C52.134,5.796 52.116,5.472 52.092,5.184 L53.262,5.184 Z" id="Path"></path>
            <path d="M77.922,11.556 C77.706,11.88 77.445,12.186 77.139,12.474 C76.833,12.762 76.479,13.014 76.077,13.23 C75.675,13.446 75.231,13.617 74.745,13.743 C74.259,13.869 73.728,13.932 73.152,13.932 C72.192,13.932 71.304,13.764 70.488,13.428 C69.672,13.092 68.97,12.627 68.382,12.033 C67.794,11.439 67.335,10.734 67.005,9.918 C66.675,9.102 66.51,8.208 66.51,7.236 C66.51,6.264 66.678,5.37 67.014,4.554 C67.35,3.738 67.815,3.033 68.409,2.439 C69.003,1.845 69.705,1.38 70.515,1.044 C71.325,0.708 72.204,0.54 73.152,0.54 C73.62,0.54 74.079,0.588 74.529,0.684 C74.979,0.78 75.402,0.915 75.798,1.089 C76.194,1.263 76.554,1.473 76.878,1.719 C77.202,1.965 77.472,2.244 77.688,2.556 L76.608,3.348 C76.476,3.144 76.299,2.94 76.077,2.736 C75.855,2.532 75.594,2.352 75.294,2.196 C74.994,2.04 74.667,1.914 74.313,1.818 C73.959,1.722 73.578,1.674 73.17,1.674 C72.342,1.674 71.601,1.824 70.947,2.124 C70.293,2.424 69.738,2.829 69.282,3.339 C68.826,3.849 68.478,4.44 68.238,5.112 C67.998,5.784 67.878,6.492 67.878,7.236 C67.878,7.98 68.001,8.688 68.247,9.36 C68.493,10.032 68.844,10.623 69.3,11.133 C69.756,11.643 70.311,12.048 70.965,12.348 C71.619,12.648 72.354,12.798 73.17,12.798 C73.902,12.798 74.598,12.648 75.258,12.348 C75.918,12.048 76.47,11.568 76.914,10.908 L77.922,11.556 Z" id="Path"></path>
            <path d="M86.292,8.748 C86.256,7.956 86.001,7.299 85.527,6.777 C85.053,6.255 84.378,5.994 83.502,5.994 C83.094,5.994 82.716,6.069 82.368,6.219 C82.02,6.369 81.714,6.573 81.45,6.831 C81.186,7.089 80.976,7.383 80.82,7.713 C80.664,8.043 80.574,8.388 80.55,8.748 L86.292,8.748 Z M87.534,9.144 C87.534,9.228 87.534,9.318 87.534,9.414 C87.534,9.51 87.528,9.612 87.516,9.72 L80.532,9.72 C80.544,10.14 80.628,10.536 80.784,10.908 C80.94,11.28 81.156,11.604 81.432,11.88 C81.708,12.156 82.032,12.375 82.404,12.537 C82.776,12.699 83.178,12.78 83.61,12.78 C84.246,12.78 84.795,12.633 85.257,12.339 C85.719,12.045 86.07,11.706 86.31,11.322 L87.228,12.042 C86.724,12.678 86.169,13.134 85.563,13.41 C84.957,13.686 84.306,13.824 83.61,13.824 C82.986,13.824 82.407,13.713 81.873,13.491 C81.339,13.269 80.88,12.96 80.496,12.564 C80.112,12.168 79.809,11.7 79.587,11.16 C79.365,10.62 79.254,10.032 79.254,9.396 C79.254,8.76 79.362,8.172 79.578,7.632 C79.794,7.092 80.094,6.624 80.478,6.228 C80.862,5.832 81.312,5.523 81.828,5.301 C82.344,5.079 82.902,4.968 83.502,4.968 C84.162,4.968 84.744,5.079 85.248,5.301 C85.752,5.523 86.172,5.823 86.508,6.201 C86.844,6.579 87.099,7.02 87.273,7.524 C87.447,8.028 87.534,8.568 87.534,9.144 Z" id="Shape"></path>
            <path d="M91.26,5.184 C91.284,5.412 91.302,5.664 91.314,5.94 C91.326,6.216 91.332,6.444 91.332,6.624 L91.368,6.624 C91.608,6.132 91.998,5.733 92.538,5.427 C93.078,5.121 93.648,4.968 94.248,4.968 C95.316,4.968 96.117,5.286 96.651,5.922 C97.185,6.558 97.452,7.398 97.452,8.442 L97.452,13.608 L96.228,13.608 L96.228,8.946 C96.228,8.502 96.192,8.1 96.12,7.74 C96.048,7.38 95.925,7.071 95.751,6.813 C95.577,6.555 95.343,6.354 95.049,6.21 C94.755,6.066 94.386,5.994 93.942,5.994 C93.618,5.994 93.303,6.06 92.997,6.192 C92.691,6.324 92.418,6.525 92.178,6.795 C91.938,7.065 91.746,7.407 91.602,7.821 C91.458,8.235 91.386,8.724 91.386,9.288 L91.386,13.608 L90.162,13.608 L90.162,7.038 C90.162,6.81 90.156,6.516 90.144,6.156 C90.132,5.796 90.114,5.472 90.09,5.184 L91.26,5.184 Z" id="Path"></path>
            <path d="M104.418,6.21 L102.042,6.21 L102.042,11.124 C102.042,11.436 102.072,11.694 102.132,11.898 C102.192,12.102 102.279,12.261 102.393,12.375 C102.507,12.489 102.642,12.567 102.798,12.609 C102.954,12.651 103.122,12.672 103.302,12.672 C103.47,12.672 103.647,12.648 103.833,12.6 C104.019,12.552 104.196,12.486 104.364,12.402 L104.418,13.464 C104.202,13.548 103.977,13.611 103.743,13.653 C103.509,13.695 103.254,13.716 102.978,13.716 C102.75,13.716 102.51,13.686 102.258,13.626 C102.006,13.566 101.772,13.452 101.556,13.284 C101.34,13.116 101.163,12.888 101.025,12.6 C100.887,12.312 100.818,11.934 100.818,11.466 L100.818,6.21 L99.072,6.21 L99.072,5.184 L100.818,5.184 L100.818,2.808 L102.042,2.808 L102.042,5.184 L104.418,5.184 L104.418,6.21 Z" id="Path"></path>
            <path d="M106.326,7.038 C106.326,6.81 106.32,6.516 106.308,6.156 C106.296,5.796 106.278,5.472 106.254,5.184 L107.424,5.184 C107.448,5.412 107.466,5.664 107.478,5.94 C107.49,6.216 107.496,6.444 107.496,6.624 L107.532,6.624 C107.772,6.132 108.132,5.733 108.612,5.427 C109.092,5.121 109.632,4.968 110.232,4.968 C110.388,4.968 110.529,4.974 110.655,4.986 C110.781,4.998 110.91,5.022 111.042,5.058 L110.88,6.21 C110.808,6.186 110.688,6.162 110.52,6.138 C110.352,6.114 110.184,6.102 110.016,6.102 C109.692,6.102 109.38,6.162 109.08,6.282 C108.78,6.402 108.519,6.591 108.297,6.849 C108.075,7.107 107.895,7.437 107.757,7.839 C107.619,8.241 107.55,8.724 107.55,9.288 L107.55,13.608 L106.326,13.608 L106.326,7.038 Z" id="Path"></path>
            <path d="M118.908,8.748 C118.872,7.956 118.617,7.299 118.143,6.777 C117.669,6.255 116.994,5.994 116.118,5.994 C115.71,5.994 115.332,6.069 114.984,6.219 C114.636,6.369 114.33,6.573 114.066,6.831 C113.802,7.089 113.592,7.383 113.436,7.713 C113.28,8.043 113.19,8.388 113.166,8.748 L118.908,8.748 Z M120.15,9.144 C120.15,9.228 120.15,9.318 120.15,9.414 C120.15,9.51 120.144,9.612 120.132,9.72 L113.148,9.72 C113.16,10.14 113.244,10.536 113.4,10.908 C113.556,11.28 113.772,11.604 114.048,11.88 C114.324,12.156 114.648,12.375 115.02,12.537 C115.392,12.699 115.794,12.78 116.226,12.78 C116.862,12.78 117.411,12.633 117.873,12.339 C118.335,12.045 118.686,11.706 118.926,11.322 L119.844,12.042 C119.34,12.678 118.785,13.134 118.179,13.41 C117.573,13.686 116.922,13.824 116.226,13.824 C115.602,13.824 115.023,13.713 114.489,13.491 C113.955,13.269 113.496,12.96 113.112,12.564 C112.728,12.168 112.425,11.7 112.203,11.16 C111.981,10.62 111.87,10.032 111.87,9.396 C111.87,8.76 111.978,8.172 112.194,7.632 C112.41,7.092 112.71,6.624 113.094,6.228 C113.478,5.832 113.928,5.523 114.444,5.301 C114.96,5.079 115.518,4.968 116.118,4.968 C116.778,4.968 117.36,5.079 117.864,5.301 C118.368,5.523 118.788,5.823 119.124,6.201 C119.46,6.579 119.715,7.02 119.889,7.524 C120.063,8.028 120.15,8.568 120.15,9.144 Z" id="Shape"></path>
        </g>
        <g id="Lowpoly-Copy" transform="translate(1.400000, 2.000000)" fill="#000000" fill-rule="nonzero">
            <polygon id="Path" points="12.684 21 12.684 16.8 4.2 16.8 4.2 0 0 0 0 18.9 2.1 21"></polygon>
            <path d="M30.912,18.9 L30.912,2.1 L28.812,0 L17.584,0 L15.484,2.1 L15.484,18.9 L17.584,21 L28.812,21 L30.912,18.9 Z M26.712,16.8 L19.684,16.8 L19.684,4.2 L26.712,4.2 L26.712,16.8 Z" id="Shape"></path>
            <polygon id="Path" points="33.712 0 33.712 18.9 35.812 21 51.968 21 51.968 0 47.768 0 47.768 16.8 44.968 16.8 44.968 0 40.768 0 40.768 16.8 37.912 16.8 37.912 0"></polygon>
            <path d="M70.196,10.5 L70.196,2.1 L68.096,0 L54.824,0 L54.824,21 L59.024,21 L59.024,12.6 L68.096,12.6 L70.196,10.5 Z M65.996,8.4 L59.024,8.4 L59.024,4.2 L65.996,4.2 L65.996,8.4 Z" id="Shape"></path>
            <path d="M88.452,18.9 L88.452,2.1 L86.352,0 L75.124,0 L73.024,2.1 L73.024,18.9 L75.124,21 L86.352,21 L88.452,18.9 Z M84.252,16.8 L77.224,16.8 L77.224,4.2 L84.252,4.2 L84.252,16.8 Z" id="Shape"></path>
            <polygon id="Path" points="100.912 21 100.912 16.8 95.452 16.8 95.452 0 91.252 0 91.252 18.9 93.352 21"></polygon>
            <polygon id="Path" points="119.308 10.5 119.308 0 115.108 0 115.108 8.4 108.024 8.4 108.024 0 103.824 0 103.824 10.5 105.924 12.6 109.396 12.6 109.396 21 113.596 21 113.596 12.6 117.208 12.6"></polygon>
        </g>
    </g>
</svg>