{
    "asset" : {
        "generator" : "Khronos glTF Blender I/O v1.2.75",
        "version" : "2.0"
    },
    "scene" : 0,
    "scenes" : [
        {
            "name" : "Scene",
            "nodes" : [
                0
            ]
        }
    ],
    "nodes" : [
        {
            "mesh" : 0,
            "name" : "Cylinder.001",
            "translation" : [
                0,
                -0.35939574241638184,
                0
            ]
        }
    ],
    "materials" : [
        {
            "doubleSided" : true,
            "emissiveFactor" : [
                0,
                0,
                0
            ],
            "name" : "Material.002",
            "pbrMetallicRoughness" : {
                "baseColorTexture" : {
                    "index" : 0,
                    "texCoord" : 0
                },
                "metallicFactor" : 0,
                "roughnessFactor" : 0.5
            }
        }
    ],
    "meshes" : [
        {
            "name" : "Cylinder.002",
            "primitives" : [
                {
                    "attributes" : {
                        "POSITION" : 0,
                        "NORMAL" : 1,
                        "TEXCOORD_0" : 2
                    },
                    "indices" : 3,
                    "material" : 0
                }
            ]
        }
    ],
    "textures" : [
        {
            "source" : 0
        }
    ],
    "images" : [
        {
            "bufferView" : 4,
            "mimeType" : "image/png",
            "name" : "materialtexture"
        }
    ],
    "accessors" : [
        {
            "bufferView" : 0,
            "componentType" : 5126,
            "count" : 1380,
            "max" : [
                0.3904518187046051,
                1.203023076057434,
                0.614083468914032
            ],
            "min" : [
                -0.5292549133300781,
                0.33675363659858704,
                -0.677474856376648
            ],
            "type" : "VEC3"
        },
        {
            "bufferView" : 1,
            "componentType" : 5126,
            "count" : 1380,
            "type" : "VEC3"
        },
        {
            "bufferView" : 2,
            "componentType" : 5126,
            "count" : 1380,
            "type" : "VEC2"
        },
        {
            "bufferView" : 3,
            "componentType" : 5123,
            "count" : 1812,
            "type" : "SCALAR"
        }
    ],
    "bufferViews" : [
        {
            "buffer" : 0,
            "byteLength" : 16560,
            "byteOffset" : 0
        },
        {
            "buffer" : 0,
            "byteLength" : 16560,
            "byteOffset" : 16560
        },
        {
            "buffer" : 0,
            "byteLength" : 11040,
            "byteOffset" : 33120
        },
        {
            "buffer" : 0,
            "byteLength" : 3624,
            "byteOffset" : 44160
        },
        {
            "buffer" : 0,
            "byteLength" : 1095,
            "byteOffset" : 47784
        }
    ],
    "buffers" : [
        {
            "byteLength" : 48880,
            "uri" : "data:application/octet-stream;base64,"
        }
    ]
}
