{
    "asset" : {
        "generator" : "Khronos glTF Blender I/O v1.2.75",
        "version" : "2.0"
    },
    "scene" : 0,
    "scenes" : [
        {
            "name" : "Scene",
            "nodes" : [
                0
            ]
        }
    ],
    "nodes" : [
        {
            "mesh" : 0,
            "name" : "Cylinder.009",
            "rotation" : [
                -0.005180640611797571,
                0.24639971554279327,
                0.036726150661706924,
                0.968458354473114
            ],
            "translation" : [
                -0.017378583550453186,
                0.23518842458724976,
                0.003919380716979504
            ]
        }
    ],
    "materials" : [
        {
            "emissiveFactor" : [
                0,
                0,
                0
            ],
            "name" : "Material",
            "pbrMetallicRoughness" : {
                "baseColorTexture" : {
                    "index" : 0,
                    "texCoord" : 0
                },
                "metallicFactor" : 0,
                "roughnessFactor" : 0.5
            }
        }
    ],
    "meshes" : [
        {
            "name" : "Cylinder.009",
            "primitives" : [
                {
                    "attributes" : {
                        "POSITION" : 0,
                        "NORMAL" : 1,
                        "TEXCOORD_0" : 2
                    },
                    "indices" : 3,
                    "material" : 0
                }
            ]
        }
    ],
    "textures" : [
        {
            "source" : 0
        }
    ],
    "images" : [
        {
            "bufferView" : 4,
            "mimeType" : "image/png",
            "name" : "materialtexture"
        }
    ],
    "accessors" : [
        {
            "bufferView" : 0,
            "componentType" : 5126,
            "count" : 836,
            "max" : [
                0.02203570306301117,
                0.02661050483584404,
                0.02213357947766781
            ],
            "min" : [
                -0.02459939382970333,
                -0.2584390342235565,
                -0.026961395516991615
            ],
            "type" : "VEC3"
        },
        {
            "bufferView" : 1,
            "componentType" : 5126,
            "count" : 836,
            "type" : "VEC3"
        },
        {
            "bufferView" : 2,
            "componentType" : 5126,
            "count" : 836,
            "type" : "VEC2"
        },
        {
            "bufferView" : 3,
            "componentType" : 5123,
            "count" : 1356,
            "type" : "SCALAR"
        }
    ],
    "bufferViews" : [
        {
            "buffer" : 0,
            "byteLength" : 10032,
            "byteOffset" : 0
        },
        {
            "buffer" : 0,
            "byteLength" : 10032,
            "byteOffset" : 10032
        },
        {
            "buffer" : 0,
            "byteLength" : 6688,
            "byteOffset" : 20064
        },
        {
            "buffer" : 0,
            "byteLength" : 2712,
            "byteOffset" : 26752
        },
        {
            "buffer" : 0,
            "byteLength" : 1095,
            "byteOffset" : 29464
        }
    ],
    "buffers" : [
        {
            "byteLength" : 30560,
            "uri" : "data:application/octet-stream;base64,"
        }
    ]
}
