{
    "asset" : {
        "generator" : "Khronos glTF Blender I/O v1.2.75",
        "version" : "2.0"
    },
    "scene" : 0,
    "scenes" : [
        {
            "name" : "Scene",
            "nodes" : [
                0
            ]
        }
    ],
    "nodes" : [
        {
            "mesh" : 0,
            "name" : "Icosphere",
            "rotation" : [
                -0.018916726112365723,
                0.13992945849895477,
                0.03904492035508156,
                0.9892104864120483
            ],
            "translation" : [
                0.006015078630298376,
                0.44403189420700073,
                0.021664828062057495
            ]
        }
    ],
    "materials" : [
        {
            "emissiveFactor" : [
                0,
                0,
                0
            ],
            "name" : "Material.001",
            "pbrMetallicRoughness" : {
                "baseColorTexture" : {
                    "index" : 0,
                    "texCoord" : 0
                },
                "metallicFactor" : 0,
                "roughnessFactor" : 0.5
            }
        }
    ],
    "meshes" : [
        {
            "name" : "Icosphere",
            "primitives" : [
                {
                    "attributes" : {
                        "POSITION" : 0,
                        "NORMAL" : 1,
                        "TEXCOORD_0" : 2
                    },
                    "indices" : 3,
                    "material" : 0
                }
            ]
        }
    ],
    "textures" : [
        {
            "source" : 0
        }
    ],
    "images" : [
        {
            "bufferView" : 4,
            "mimeType" : "image/png",
            "name" : "materialtexture"
        }
    ],
    "accessors" : [
        {
            "bufferView" : 0,
            "componentType" : 5126,
            "count" : 315,
            "max" : [
                0.04911094158887863,
                0.12024995684623718,
                0.024407414719462395
            ],
            "min" : [
                -0.049968235194683075,
                -0.48603951930999756,
                -0.06563109904527664
            ],
            "type" : "VEC3"
        },
        {
            "bufferView" : 1,
            "componentType" : 5126,
            "count" : 315,
            "type" : "VEC3"
        },
        {
            "bufferView" : 2,
            "componentType" : 5126,
            "count" : 315,
            "type" : "VEC2"
        },
        {
            "bufferView" : 3,
            "componentType" : 5123,
            "count" : 489,
            "type" : "SCALAR"
        }
    ],
    "bufferViews" : [
        {
            "buffer" : 0,
            "byteLength" : 3780,
            "byteOffset" : 0
        },
        {
            "buffer" : 0,
            "byteLength" : 3780,
            "byteOffset" : 3780
        },
        {
            "buffer" : 0,
            "byteLength" : 2520,
            "byteOffset" : 7560
        },
        {
            "buffer" : 0,
            "byteLength" : 978,
            "byteOffset" : 10080
        },
        {
            "buffer" : 0,
            "byteLength" : 1095,
            "byteOffset" : 11060
        }
    ],
    "buffers" : [
        {
            "byteLength" : 12156,
            "uri" : "data:application/octet-stream;base64,"
        }
    ]
}
