{
    "asset" : {
        "generator" : "Khronos glTF Blender I/O v1.2.75",
        "version" : "2.0"
    },
    "scene" : 0,
    "scenes" : [
        {
            "name" : "Scene",
            "nodes" : [
                0
            ]
        }
    ],
    "nodes" : [
        {
            "mesh" : 0,
            "name" : "Icosphere",
            "rotation" : [
                0,
                0.14006206393241882,
                0,
                0.9901427030563354
            ],
            "translation" : [
                -0.007326774299144745,
                0.39848238229751587,
                0.010407272726297379
            ]
        }
    ],
    "materials" : [
        {
            "emissiveFactor" : [
                0,
                0,
                0
            ],
            "name" : "Material.001",
            "pbrMetallicRoughness" : {
                "baseColorTexture" : {
                    "index" : 0,
                    "texCoord" : 0
                },
                "metallicFactor" : 0,
                "roughnessFactor" : 0.5
            }
        }
    ],
    "meshes" : [
        {
            "name" : "Icosphere",
            "primitives" : [
                {
                    "attributes" : {
                        "POSITION" : 0,
                        "NORMAL" : 1,
                        "TEXCOORD_0" : 2
                    },
                    "indices" : 3,
                    "material" : 0
                }
            ]
        }
    ],
    "textures" : [
        {
            "source" : 0
        }
    ],
    "images" : [
        {
            "bufferView" : 4,
            "mimeType" : "image/png",
            "name" : "materialtexture"
        }
    ],
    "accessors" : [
        {
            "bufferView" : 0,
            "componentType" : 5126,
            "count" : 1257,
            "max" : [
                0.09379810094833374,
                0.15156368911266327,
                0.06509604305028915
            ],
            "min" : [
                -0.12710657715797424,
                -0.4275646507740021,
                -0.05898807942867279
            ],
            "type" : "VEC3"
        },
        {
            "bufferView" : 1,
            "componentType" : 5126,
            "count" : 1257,
            "type" : "VEC3"
        },
        {
            "bufferView" : 2,
            "componentType" : 5126,
            "count" : 1257,
            "type" : "VEC2"
        },
        {
            "bufferView" : 3,
            "componentType" : 5123,
            "count" : 1395,
            "type" : "SCALAR"
        }
    ],
    "bufferViews" : [
        {
            "buffer" : 0,
            "byteLength" : 15084,
            "byteOffset" : 0
        },
        {
            "buffer" : 0,
            "byteLength" : 15084,
            "byteOffset" : 15084
        },
        {
            "buffer" : 0,
            "byteLength" : 10056,
            "byteOffset" : 30168
        },
        {
            "buffer" : 0,
            "byteLength" : 2790,
            "byteOffset" : 40224
        },
        {
            "buffer" : 0,
            "byteLength" : 1095,
            "byteOffset" : 43016
        }
    ],
    "buffers" : [
        {
            "byteLength" : 44112,
            "uri" : "data:application/octet-stream;base64,"
        }
    ]
}
