{
    "asset" : {
        "generator" : "Khronos glTF Blender I/O v1.2.75",
        "version" : "2.0"
    },
    "scene" : 0,
    "scenes" : [
        {
            "name" : "Scene",
            "nodes" : [
                0
            ]
        }
    ],
    "nodes" : [
        {
            "mesh" : 0,
            "name" : "Cylinder",
            "rotation" : [
                0.03351850062608719,
                0.6731518507003784,
                -0.015879526734352112,
                -0.7385736107826233
            ],
            "translation" : [
                0.0022199461236596107,
                0.4476644694805145,
                -0.00243364367634058
            ]
        }
    ],
    "materials" : [
        {
            "emissiveFactor" : [
                0,
                0,
                0
            ],
            "name" : "Material",
            "pbrMetallicRoughness" : {
                "baseColorTexture" : {
                    "index" : 0,
                    "texCoord" : 0
                },
                "metallicFactor" : 0,
                "roughnessFactor" : 0.5
            }
        }
    ],
    "meshes" : [
        {
            "name" : "Cylinder",
            "primitives" : [
                {
                    "attributes" : {
                        "POSITION" : 0,
                        "NORMAL" : 1,
                        "TEXCOORD_0" : 2
                    },
                    "indices" : 3,
                    "material" : 0
                }
            ]
        }
    ],
    "textures" : [
        {
            "source" : 0
        }
    ],
    "images" : [
        {
            "bufferView" : 4,
            "mimeType" : "image/png",
            "name" : "materialtexture"
        }
    ],
    "accessors" : [
        {
            "bufferView" : 0,
            "componentType" : 5126,
            "count" : 410,
            "max" : [
                0.06603380292654037,
                -0.10538455843925476,
                0.0910356268286705
            ],
            "min" : [
                -0.03754091635346413,
                -0.5118293762207031,
                -0.07168731838464737
            ],
            "type" : "VEC3"
        },
        {
            "bufferView" : 1,
            "componentType" : 5126,
            "count" : 410,
            "type" : "VEC3"
        },
        {
            "bufferView" : 2,
            "componentType" : 5126,
            "count" : 410,
            "type" : "VEC2"
        },
        {
            "bufferView" : 3,
            "componentType" : 5123,
            "count" : 630,
            "type" : "SCALAR"
        }
    ],
    "bufferViews" : [
        {
            "buffer" : 0,
            "byteLength" : 4920,
            "byteOffset" : 0
        },
        {
            "buffer" : 0,
            "byteLength" : 4920,
            "byteOffset" : 4920
        },
        {
            "buffer" : 0,
            "byteLength" : 3280,
            "byteOffset" : 9840
        },
        {
            "buffer" : 0,
            "byteLength" : 1260,
            "byteOffset" : 13120
        },
        {
            "buffer" : 0,
            "byteLength" : 1095,
            "byteOffset" : 14380
        }
    ],
    "buffers" : [
        {
            "byteLength" : 15476,
            "uri" : "data:application/octet-stream;base64,"
        }
    ]
}
