{
    "asset" : {
        "generator" : "Khronos glTF Blender I/O v1.2.75",
        "version" : "2.0"
    },
    "scene" : 0,
    "scenes" : [
        {
            "name" : "Scene",
            "nodes" : [
                0
            ]
        }
    ],
    "nodes" : [
        {
            "mesh" : 0,
            "name" : "Cylinder",
            "rotation" : [
                0.03351850062608719,
                0.6731518507003784,
                -0.015879526734352112,
                -0.7385736107826233
            ],
            "translation" : [
                -0.004197916481643915,
                0.20582696795463562,
                -0.003434714861214161
            ]
        }
    ],
    "materials" : [
        {
            "emissiveFactor" : [
                0,
                0,
                0
            ],
            "name" : "Material",
            "pbrMetallicRoughness" : {
                "baseColorTexture" : {
                    "index" : 0,
                    "texCoord" : 0
                },
                "metallicFactor" : 0,
                "roughnessFactor" : 0.5
            }
        }
    ],
    "meshes" : [
        {
            "name" : "Cylinder",
            "primitives" : [
                {
                    "attributes" : {
                        "POSITION" : 0,
                        "NORMAL" : 1,
                        "TEXCOORD_0" : 2
                    },
                    "indices" : 3,
                    "material" : 0
                }
            ]
        }
    ],
    "textures" : [
        {
            "source" : 0
        }
    ],
    "images" : [
        {
            "bufferView" : 4,
            "mimeType" : "image/png",
            "name" : "materialtexture"
        }
    ],
    "accessors" : [
        {
            "bufferView" : 0,
            "componentType" : 5126,
            "count" : 412,
            "max" : [
                0.04475599527359009,
                0.0687008649110794,
                0.06569002568721771
            ],
            "min" : [
                -0.04134543612599373,
                -0.27058911323547363,
                -0.06903396546840668
            ],
            "type" : "VEC3"
        },
        {
            "bufferView" : 1,
            "componentType" : 5126,
            "count" : 412,
            "type" : "VEC3"
        },
        {
            "bufferView" : 2,
            "componentType" : 5126,
            "count" : 412,
            "type" : "VEC2"
        },
        {
            "bufferView" : 3,
            "componentType" : 5123,
            "count" : 630,
            "type" : "SCALAR"
        }
    ],
    "bufferViews" : [
        {
            "buffer" : 0,
            "byteLength" : 4944,
            "byteOffset" : 0
        },
        {
            "buffer" : 0,
            "byteLength" : 4944,
            "byteOffset" : 4944
        },
        {
            "buffer" : 0,
            "byteLength" : 3296,
            "byteOffset" : 9888
        },
        {
            "buffer" : 0,
            "byteLength" : 1260,
            "byteOffset" : 13184
        },
        {
            "buffer" : 0,
            "byteLength" : 1095,
            "byteOffset" : 14444
        }
    ],
    "buffers" : [
        {
            "byteLength" : 15540,
            "uri" : "data:application/octet-stream;base64,"
        }
    ]
}
