{
    "asset" : {
        "generator" : "Khronos glTF Blender I/O v1.2.75",
        "version" : "2.0"
    },
    "scene" : 0,
    "scenes" : [
        {
            "name" : "Scene",
            "nodes" : [
                0
            ]
        }
    ],
    "nodes" : [
        {
            "mesh" : 0,
            "name" : "Plane.002",
            "translation" : [
                -0.0013172016479074955,
                0.15812084078788757,
                0.0009828249458223581
            ]
        }
    ],
    "materials" : [
        {
            "emissiveFactor" : [
                0,
                0,
                0
            ],
            "name" : "Material.003",
            "pbrMetallicRoughness" : {
                "baseColorTexture" : {
                    "index" : 0,
                    "texCoord" : 0
                },
                "metallicFactor" : 0,
                "roughnessFactor" : 0.5
            }
        }
    ],
    "meshes" : [
        {
            "name" : "Plane.001",
            "primitives" : [
                {
                    "attributes" : {
                        "POSITION" : 0,
                        "NORMAL" : 1,
                        "TEXCOORD_0" : 2
                    },
                    "indices" : 3,
                    "material" : 0
                }
            ]
        }
    ],
    "textures" : [
        {
            "source" : 0
        }
    ],
    "images" : [
        {
            "bufferView" : 4,
            "mimeType" : "image/png",
            "name" : "materialtexture"
        }
    ],
    "accessors" : [
        {
            "bufferView" : 0,
            "componentType" : 5126,
            "count" : 1358,
            "max" : [
                0.33266687393188477,
                0.0808267593383789,
                0.32606080174446106
            ],
            "min" : [
                -0.2930799126625061,
                -0.18195393681526184,
                -0.35522735118865967
            ],
            "type" : "VEC3"
        },
        {
            "bufferView" : 1,
            "componentType" : 5126,
            "count" : 1358,
            "type" : "VEC3"
        },
        {
            "bufferView" : 2,
            "componentType" : 5126,
            "count" : 1358,
            "type" : "VEC2"
        },
        {
            "bufferView" : 3,
            "componentType" : 5123,
            "count" : 2220,
            "type" : "SCALAR"
        }
    ],
    "bufferViews" : [
        {
            "buffer" : 0,
            "byteLength" : 16296,
            "byteOffset" : 0
        },
        {
            "buffer" : 0,
            "byteLength" : 16296,
            "byteOffset" : 16296
        },
        {
            "buffer" : 0,
            "byteLength" : 10864,
            "byteOffset" : 32592
        },
        {
            "buffer" : 0,
            "byteLength" : 4440,
            "byteOffset" : 43456
        },
        {
            "buffer" : 0,
            "byteLength" : 1095,
            "byteOffset" : 47896
        }
    ],
    "buffers" : [
        {
            "byteLength" : 48992,
            "uri" : "data:application/octet-stream;base64,"
        }
    ]
}
