{
    "asset" : {
        "generator" : "Khronos glTF Blender I/O v1.2.75",
        "version" : "2.0"
    },
    "scene" : 0,
    "scenes" : [
        {
            "name" : "Scene",
            "nodes" : [
                0
            ]
        }
    ],
    "nodes" : [
        {
            "mesh" : 0,
            "name" : "Cylinder.001"
        }
    ],
    "materials" : [
        {
            "doubleSided" : true,
            "emissiveFactor" : [
                0,
                0,
                0
            ],
            "name" : "Material.006",
            "pbrMetallicRoughness" : {
                "baseColorTexture" : {
                    "index" : 0,
                    "texCoord" : 0
                },
                "metallicFactor" : 0,
                "roughnessFactor" : 0.5
            }
        }
    ],
    "meshes" : [
        {
            "name" : "Cylinder.006",
            "primitives" : [
                {
                    "attributes" : {
                        "POSITION" : 0,
                        "NORMAL" : 1,
                        "TEXCOORD_0" : 2
                    },
                    "indices" : 3,
                    "material" : 0
                }
            ]
        }
    ],
    "textures" : [
        {
            "source" : 0
        }
    ],
    "images" : [
        {
            "bufferView" : 4,
            "mimeType" : "image/png",
            "name" : "materialtexture"
        }
    ],
    "accessors" : [
        {
            "bufferView" : 0,
            "componentType" : 5126,
            "count" : 1062,
            "max" : [
                0.840936005115509,
                4.494998455047607,
                1.1401944160461426
            ],
            "min" : [
                -1.019943356513977,
                -0.11375746130943298,
                -0.7490102052688599
            ],
            "type" : "VEC3"
        },
        {
            "bufferView" : 1,
            "componentType" : 5126,
            "count" : 1062,
            "type" : "VEC3"
        },
        {
            "bufferView" : 2,
            "componentType" : 5126,
            "count" : 1062,
            "type" : "VEC2"
        },
        {
            "bufferView" : 3,
            "componentType" : 5123,
            "count" : 1260,
            "type" : "SCALAR"
        }
    ],
    "bufferViews" : [
        {
            "buffer" : 0,
            "byteLength" : 12744,
            "byteOffset" : 0
        },
        {
            "buffer" : 0,
            "byteLength" : 12744,
            "byteOffset" : 12744
        },
        {
            "buffer" : 0,
            "byteLength" : 8496,
            "byteOffset" : 25488
        },
        {
            "buffer" : 0,
            "byteLength" : 2520,
            "byteOffset" : 33984
        },
        {
            "buffer" : 0,
            "byteLength" : 1095,
            "byteOffset" : 36504
        }
    ],
    "buffers" : [
        {
            "byteLength" : 37600,
            "uri" : "data:application/octet-stream;base64,"
        }
    ]
}
