{
    "asset" : {
        "generator" : "Khronos glTF Blender I/O v1.2.75",
        "version" : "2.0"
    },
    "scene" : 0,
    "scenes" : [
        {
            "name" : "Scene",
            "nodes" : [
                0
            ]
        }
    ],
    "nodes" : [
        {
            "mesh" : 0,
            "name" : "Plane"
        }
    ],
    "materials" : [
        {
            "emissiveFactor" : [
                0,
                0,
                0
            ],
            "name" : "Material.003",
            "pbrMetallicRoughness" : {
                "baseColorTexture" : {
                    "index" : 0,
                    "texCoord" : 0
                },
                "metallicFactor" : 0,
                "roughnessFactor" : 0.5
            }
        }
    ],
    "meshes" : [
        {
            "name" : "Plane",
            "primitives" : [
                {
                    "attributes" : {
                        "POSITION" : 0,
                        "NORMAL" : 1,
                        "TEXCOORD_0" : 2
                    },
                    "indices" : 3,
                    "material" : 0
                }
            ]
        }
    ],
    "textures" : [
        {
            "source" : 0
        }
    ],
    "images" : [
        {
            "bufferView" : 4,
            "mimeType" : "image/png",
            "name" : "materialtexture"
        }
    ],
    "accessors" : [
        {
            "bufferView" : 0,
            "componentType" : 5126,
            "count" : 75,
            "max" : [
                0.2488408088684082,
                0.5934669375419617,
                0.2840688228607178
            ],
            "min" : [
                -0.011148037388920784,
                -0.027441076934337616,
                -0.045444369316101074
            ],
            "type" : "VEC3"
        },
        {
            "bufferView" : 1,
            "componentType" : 5126,
            "count" : 75,
            "type" : "VEC3"
        },
        {
            "bufferView" : 2,
            "componentType" : 5126,
            "count" : 75,
            "type" : "VEC2"
        },
        {
            "bufferView" : 3,
            "componentType" : 5123,
            "count" : 111,
            "type" : "SCALAR"
        }
    ],
    "bufferViews" : [
        {
            "buffer" : 0,
            "byteLength" : 900,
            "byteOffset" : 0
        },
        {
            "buffer" : 0,
            "byteLength" : 900,
            "byteOffset" : 900
        },
        {
            "buffer" : 0,
            "byteLength" : 600,
            "byteOffset" : 1800
        },
        {
            "buffer" : 0,
            "byteLength" : 222,
            "byteOffset" : 2400
        },
        {
            "buffer" : 0,
            "byteLength" : 1095,
            "byteOffset" : 2624
        }
    ],
    "buffers" : [
        {
            "byteLength" : 3720,
            "uri" : "data:application/octet-stream;base64,"
        }
    ]
}
