{
    "asset" : {
        "generator" : "Khronos glTF Blender I/O v1.2.75",
        "version" : "2.0"
    },
    "scene" : 0,
    "scenes" : [
        {
            "name" : "Scene",
            "nodes" : [
                0
            ]
        }
    ],
    "nodes" : [
        {
            "mesh" : 0,
            "name" : "Plane"
        }
    ],
    "materials" : [
        {
            "emissiveFactor" : [
                0,
                0,
                0
            ],
            "name" : "Material.003",
            "pbrMetallicRoughness" : {
                "baseColorTexture" : {
                    "index" : 0,
                    "texCoord" : 0
                },
                "metallicFactor" : 0,
                "roughnessFactor" : 0.5
            }
        }
    ],
    "meshes" : [
        {
            "name" : "Plane",
            "primitives" : [
                {
                    "attributes" : {
                        "POSITION" : 0,
                        "NORMAL" : 1,
                        "TEXCOORD_0" : 2
                    },
                    "indices" : 3,
                    "material" : 0
                }
            ]
        }
    ],
    "textures" : [
        {
            "source" : 0
        }
    ],
    "images" : [
        {
            "bufferView" : 4,
            "mimeType" : "image/png",
            "name" : "materialtexture"
        }
    ],
    "accessors" : [
        {
            "bufferView" : 0,
            "componentType" : 5126,
            "count" : 247,
            "max" : [
                0.00826243869960308,
                0.5771701335906982,
                0.08434984087944031
            ],
            "min" : [
                -0.35667046904563904,
                -0.007767193019390106,
                -0.1307288408279419
            ],
            "type" : "VEC3"
        },
        {
            "bufferView" : 1,
            "componentType" : 5126,
            "count" : 247,
            "type" : "VEC3"
        },
        {
            "bufferView" : 2,
            "componentType" : 5126,
            "count" : 247,
            "type" : "VEC2"
        },
        {
            "bufferView" : 3,
            "componentType" : 5123,
            "count" : 351,
            "type" : "SCALAR"
        }
    ],
    "bufferViews" : [
        {
            "buffer" : 0,
            "byteLength" : 2964,
            "byteOffset" : 0
        },
        {
            "buffer" : 0,
            "byteLength" : 2964,
            "byteOffset" : 2964
        },
        {
            "buffer" : 0,
            "byteLength" : 1976,
            "byteOffset" : 5928
        },
        {
            "buffer" : 0,
            "byteLength" : 702,
            "byteOffset" : 7904
        },
        {
            "buffer" : 0,
            "byteLength" : 1095,
            "byteOffset" : 8608
        }
    ],
    "buffers" : [
        {
            "byteLength" : 9704,
            "uri" : "data:application/octet-stream;base64,"
        }
    ]
}
