{
    "asset" : {
        "generator" : "Khronos glTF Blender I/O v1.2.75",
        "version" : "2.0"
    },
    "scene" : 0,
    "scenes" : [
        {
            "name" : "Scene",
            "nodes" : [
                0
            ]
        }
    ],
    "nodes" : [
        {
            "mesh" : 0,
            "name" : "Plane"
        }
    ],
    "materials" : [
        {
            "emissiveFactor" : [
                0,
                0,
                0
            ],
            "name" : "Material.003",
            "pbrMetallicRoughness" : {
                "baseColorTexture" : {
                    "index" : 0,
                    "texCoord" : 0
                },
                "metallicFactor" : 0,
                "roughnessFactor" : 0.5
            }
        }
    ],
    "meshes" : [
        {
            "name" : "Plane",
            "primitives" : [
                {
                    "attributes" : {
                        "POSITION" : 0,
                        "NORMAL" : 1,
                        "TEXCOORD_0" : 2
                    },
                    "indices" : 3,
                    "material" : 0
                }
            ]
        }
    ],
    "textures" : [
        {
            "source" : 0
        }
    ],
    "images" : [
        {
            "bufferView" : 4,
            "mimeType" : "image/png",
            "name" : "materialtexture"
        }
    ],
    "accessors" : [
        {
            "bufferView" : 0,
            "componentType" : 5126,
            "count" : 116,
            "max" : [
                0.046157583594322205,
                0.4789699912071228,
                0.32894209027290344
            ],
            "min" : [
                -0.19068104028701782,
                -0.026058264076709747,
                -0.0030055437237024307
            ],
            "type" : "VEC3"
        },
        {
            "bufferView" : 1,
            "componentType" : 5126,
            "count" : 116,
            "type" : "VEC3"
        },
        {
            "bufferView" : 2,
            "componentType" : 5126,
            "count" : 116,
            "type" : "VEC2"
        },
        {
            "bufferView" : 3,
            "componentType" : 5123,
            "count" : 162,
            "type" : "SCALAR"
        }
    ],
    "bufferViews" : [
        {
            "buffer" : 0,
            "byteLength" : 1392,
            "byteOffset" : 0
        },
        {
            "buffer" : 0,
            "byteLength" : 1392,
            "byteOffset" : 1392
        },
        {
            "buffer" : 0,
            "byteLength" : 928,
            "byteOffset" : 2784
        },
        {
            "buffer" : 0,
            "byteLength" : 324,
            "byteOffset" : 3712
        },
        {
            "buffer" : 0,
            "byteLength" : 1095,
            "byteOffset" : 4036
        }
    ],
    "buffers" : [
        {
            "byteLength" : 5132,
            "uri" : "data:application/octet-stream;base64,"
        }
    ]
}
