{
    "asset" : {
        "generator" : "Khronos glTF Blender I/O v1.2.75",
        "version" : "2.0"
    },
    "scene" : 0,
    "scenes" : [
        {
            "name" : "Scene",
            "nodes" : [
                0
            ]
        }
    ],
    "nodes" : [
        {
            "mesh" : 0,
            "name" : "Plane",
            "translation" : [
                0,
                0.03124600648880005,
                0
            ]
        }
    ],
    "materials" : [
        {
            "emissiveFactor" : [
                0,
                0,
                0
            ],
            "name" : "Material.003",
            "pbrMetallicRoughness" : {
                "baseColorTexture" : {
                    "index" : 0,
                    "texCoord" : 0
                },
                "metallicFactor" : 0,
                "roughnessFactor" : 0.5
            }
        }
    ],
    "meshes" : [
        {
            "name" : "Plane",
            "primitives" : [
                {
                    "attributes" : {
                        "POSITION" : 0,
                        "NORMAL" : 1,
                        "TEXCOORD_0" : 2
                    },
                    "indices" : 3,
                    "material" : 0
                }
            ]
        }
    ],
    "textures" : [
        {
            "source" : 0
        }
    ],
    "images" : [
        {
            "bufferView" : 4,
            "mimeType" : "image/png",
            "name" : "materialtexture"
        }
    ],
    "accessors" : [
        {
            "bufferView" : 0,
            "componentType" : 5126,
            "count" : 1168,
            "max" : [
                0.471504271030426,
                1.1196733713150024,
                0.4054064154624939
            ],
            "min" : [
                -0.4633055627346039,
                -0.08224227279424667,
                -0.41368168592453003
            ],
            "type" : "VEC3"
        },
        {
            "bufferView" : 1,
            "componentType" : 5126,
            "count" : 1168,
            "type" : "VEC3"
        },
        {
            "bufferView" : 2,
            "componentType" : 5126,
            "count" : 1168,
            "type" : "VEC2"
        },
        {
            "bufferView" : 3,
            "componentType" : 5123,
            "count" : 1698,
            "type" : "SCALAR"
        }
    ],
    "bufferViews" : [
        {
            "buffer" : 0,
            "byteLength" : 14016,
            "byteOffset" : 0
        },
        {
            "buffer" : 0,
            "byteLength" : 14016,
            "byteOffset" : 14016
        },
        {
            "buffer" : 0,
            "byteLength" : 9344,
            "byteOffset" : 28032
        },
        {
            "buffer" : 0,
            "byteLength" : 3396,
            "byteOffset" : 37376
        },
        {
            "buffer" : 0,
            "byteLength" : 1095,
            "byteOffset" : 40772
        }
    ],
    "buffers" : [
        {
            "byteLength" : 41868,
            "uri" : "data:application/octet-stream;base64,"
        }
    ]
}
