{
    "asset" : {
        "generator" : "Khronos glTF Blender I/O v1.2.75",
        "version" : "2.0"
    },
    "scene" : 0,
    "scenes" : [
        {
            "name" : "Scene",
            "nodes" : [
                0
            ]
        }
    ],
    "nodes" : [
        {
            "mesh" : 0,
            "name" : "Plane.001",
            "translation" : [
                0,
                0.35942038893699646,
                0
            ]
        }
    ],
    "materials" : [
        {
            "emissiveFactor" : [
                0,
                0,
                0
            ],
            "name" : "Material.003",
            "pbrMetallicRoughness" : {
                "baseColorTexture" : {
                    "index" : 0,
                    "texCoord" : 0
                },
                "metallicFactor" : 0,
                "roughnessFactor" : 0.5
            }
        }
    ],
    "meshes" : [
        {
            "name" : "Plane.005",
            "primitives" : [
                {
                    "attributes" : {
                        "POSITION" : 0,
                        "NORMAL" : 1,
                        "TEXCOORD_0" : 2
                    },
                    "indices" : 3,
                    "material" : 0
                }
            ]
        }
    ],
    "textures" : [
        {
            "source" : 0
        }
    ],
    "images" : [
        {
            "bufferView" : 4,
            "mimeType" : "image/png",
            "name" : "materialtexture"
        }
    ],
    "accessors" : [
        {
            "bufferView" : 0,
            "componentType" : 5126,
            "count" : 825,
            "max" : [
                0.43858200311660767,
                0.7626840472221375,
                0.3524239659309387
            ],
            "min" : [
                -0.4066445529460907,
                -0.38678810000419617,
                -0.4690491259098053
            ],
            "type" : "VEC3"
        },
        {
            "bufferView" : 1,
            "componentType" : 5126,
            "count" : 825,
            "type" : "VEC3"
        },
        {
            "bufferView" : 2,
            "componentType" : 5126,
            "count" : 825,
            "type" : "VEC2"
        },
        {
            "bufferView" : 3,
            "componentType" : 5123,
            "count" : 1221,
            "type" : "SCALAR"
        }
    ],
    "bufferViews" : [
        {
            "buffer" : 0,
            "byteLength" : 9900,
            "byteOffset" : 0
        },
        {
            "buffer" : 0,
            "byteLength" : 9900,
            "byteOffset" : 9900
        },
        {
            "buffer" : 0,
            "byteLength" : 6600,
            "byteOffset" : 19800
        },
        {
            "buffer" : 0,
            "byteLength" : 2442,
            "byteOffset" : 26400
        },
        {
            "buffer" : 0,
            "byteLength" : 1095,
            "byteOffset" : 28844
        }
    ],
    "buffers" : [
        {
            "byteLength" : 29940,
            "uri" : "data:application/octet-stream;base64,"
        }
    ]
}
