{
    "asset" : {
        "generator" : "Khronos glTF Blender I/O v1.2.75",
        "version" : "2.0"
    },
    "scene" : 0,
    "scenes" : [
        {
            "name" : "Scene",
            "nodes" : [
                0
            ]
        }
    ],
    "nodes" : [
        {
            "mesh" : 0,
            "name" : "Plane",
            "translation" : [
                0,
                0.04670737683773041,
                0
            ]
        }
    ],
    "materials" : [
        {
            "emissiveFactor" : [
                0,
                0,
                0
            ],
            "name" : "Material.003",
            "pbrMetallicRoughness" : {
                "baseColorTexture" : {
                    "index" : 0,
                    "texCoord" : 0
                },
                "metallicFactor" : 0,
                "roughnessFactor" : 0.5
            }
        }
    ],
    "meshes" : [
        {
            "name" : "Plane",
            "primitives" : [
                {
                    "attributes" : {
                        "POSITION" : 0,
                        "NORMAL" : 1,
                        "TEXCOORD_0" : 2
                    },
                    "indices" : 3,
                    "material" : 0
                }
            ]
        }
    ],
    "textures" : [
        {
            "source" : 0
        }
    ],
    "images" : [
        {
            "bufferView" : 4,
            "mimeType" : "image/png",
            "name" : "materialtexture"
        }
    ],
    "accessors" : [
        {
            "bufferView" : 0,
            "componentType" : 5126,
            "count" : 749,
            "max" : [
                0.44082993268966675,
                1.1097183227539062,
                0.5398620367050171
            ],
            "min" : [
                -0.5267679691314697,
                -0.07453536987304688,
                -0.5556360483169556
            ],
            "type" : "VEC3"
        },
        {
            "bufferView" : 1,
            "componentType" : 5126,
            "count" : 749,
            "type" : "VEC3"
        },
        {
            "bufferView" : 2,
            "componentType" : 5126,
            "count" : 749,
            "type" : "VEC2"
        },
        {
            "bufferView" : 3,
            "componentType" : 5123,
            "count" : 1083,
            "type" : "SCALAR"
        }
    ],
    "bufferViews" : [
        {
            "buffer" : 0,
            "byteLength" : 8988,
            "byteOffset" : 0
        },
        {
            "buffer" : 0,
            "byteLength" : 8988,
            "byteOffset" : 8988
        },
        {
            "buffer" : 0,
            "byteLength" : 5992,
            "byteOffset" : 17976
        },
        {
            "buffer" : 0,
            "byteLength" : 2166,
            "byteOffset" : 23968
        },
        {
            "buffer" : 0,
            "byteLength" : 1095,
            "byteOffset" : 26136
        }
    ],
    "buffers" : [
        {
            "byteLength" : 27232,
            "uri" : "data:application/octet-stream;base64,"
        }
    ]
}
